<?xml version="1.0" standalone="no"?>
<!DOCTYPE svg PUBLIC "-//W3C//DTD SVG 20010904//EN"
 "http://www.w3.org/TR/2001/REC-SVG-20010904/DTD/svg10.dtd">
<svg version="1.0" xmlns="http://www.w3.org/2000/svg"
 width="2000.000000pt" height="2000.000000pt" viewBox="0 0 2000.000000 2000.000000"
 preserveAspectRatio="xMidYMid meet">

<g transform="translate(0.000000,2000.000000) scale(0.100000,-0.100000)"
fill="#000000" stroke="none">
<path d="M0 10000 l0 -10000 10000 0 10000 0 0 10000 0 10000 -10000 0 -10000
0 0 -10000z m10545 6609 c77 -5 160 -14 185 -19 25 -5 86 -14 135 -20 50 -6
108 -15 130 -20 22 -5 74 -14 115 -20 41 -6 91 -15 110 -20 19 -5 62 -14 95
-21 396 -81 899 -263 1370 -495 332 -163 653 -355 850 -508 66 -52 257 -212
310 -262 28 -25 96 -87 153 -137 92 -81 120 -117 92 -117 -5 0 -73 -9 -152
-20 -253 -35 -282 -39 -373 -50 -49 -6 -124 -15 -165 -20 -102 -12 -234 -27
-360 -40 -58 -6 -145 -15 -195 -20 -49 -5 -137 -14 -195 -20 -58 -6 -139 -15
-180 -20 -41 -5 -122 -14 -180 -20 -227 -24 -675 -83 -1060 -140 -41 -6 -104
-15 -140 -20 -36 -5 -93 -14 -127 -19 -35 -6 -91 -16 -125 -21 -35 -6 -90 -15
-123 -21 -33 -5 -87 -14 -120 -19 -316 -48 -993 -178 -1580 -305 -230 -49
-240 -51 -335 -74 -19 -5 -60 -14 -90 -21 -67 -15 -102 -23 -205 -49 -44 -11
-129 -31 -188 -45 -220 -52 -926 -245 -1062 -290 -22 -7 -71 -23 -110 -35
-329 -100 -767 -254 -937 -330 -26 -12 -50 -21 -53 -21 -20 0 -298 -134 -507
-244 -157 -82 -290 -136 -338 -136 -44 0 -48 34 -17 129 118 359 623 1183 957
1561 296 335 729 723 1061 950 354 243 601 386 938 544 364 170 828 318 1186
376 39 7 88 16 110 20 22 5 78 14 125 20 47 6 110 15 140 20 221 36 538 43
855 19z m5265 -2169 c486 -23 619 -67 739 -245 197 -291 39 -785 -396 -1236
-361 -374 -794 -629 -1308 -770 -277 -76 -674 -175 -925 -230 -25 -6 -61 -14
-80 -19 -19 -5 -57 -14 -85 -20 -27 -6 -66 -15 -85 -21 -19 -5 -98 -25 -175
-45 -416 -106 -815 -274 -1041 -437 -203 -146 -389 -347 -530 -572 -84 -135
-132 -234 -254 -530 -38 -92 -176 -504 -238 -710 -11 -38 -34 -115 -51 -170
-16 -55 -44 -149 -61 -210 -17 -60 -43 -148 -56 -195 -14 -47 -30 -103 -35
-125 -6 -22 -15 -51 -19 -65 -4 -14 -18 -63 -30 -110 -12 -47 -26 -96 -30
-110 -8 -22 -61 -219 -181 -670 -21 -80 -43 -161 -49 -180 -11 -36 -127 -473
-190 -715 -10 -38 -37 -142 -60 -230 -24 -88 -63 -236 -87 -330 -25 -93 -53
-201 -63 -240 -19 -72 -48 -181 -120 -460 -23 -88 -62 -234 -87 -325 -25 -91
-48 -174 -50 -185 -3 -11 -8 -29 -13 -40 -4 -11 -18 -56 -30 -100 -50 -179
-182 -565 -220 -643 -228 -471 -773 -909 -1439 -1157 -68 -25 -156 -55 -195
-66 -112 -32 -218 -60 -261 -69 -22 -4 -120 -24 -217 -44 -217 -44 -251 -45
-274 -11 -20 30 -15 132 11 250 8 39 19 88 24 110 8 38 40 175 82 355 11 47
27 114 35 150 8 36 19 81 24 100 5 19 18 76 30 125 12 50 25 106 30 125 5 19
34 136 64 260 90 369 387 1563 396 1595 5 17 32 120 59 230 28 110 73 290 102
400 52 203 61 239 78 310 9 38 74 292 162 635 22 85 55 214 74 285 18 72 45
173 58 225 14 52 47 176 72 275 26 99 60 232 77 295 16 63 47 185 69 270 22
85 53 205 69 265 205 781 457 1793 500 2008 31 155 32 152 -65 150 -44 -1
-120 -9 -170 -18 -49 -9 -112 -20 -140 -25 -92 -16 -386 -76 -585 -120 -19 -4
-60 -13 -90 -20 -99 -22 -124 -27 -265 -59 -77 -18 -151 -36 -165 -41 -14 -4
-52 -14 -85 -20 -33 -7 -85 -19 -115 -27 -30 -8 -71 -18 -90 -23 -135 -30
-830 -220 -950 -259 -14 -5 -56 -18 -95 -30 -178 -53 -719 -236 -890 -301
-281 -106 -413 -162 -670 -285 -252 -121 -408 -185 -446 -185 -50 0 -77 103
-85 327 -9 251 17 594 62 828 18 93 67 259 96 325 122 275 248 460 442 647
150 146 282 244 509 379 71 42 418 211 502 244 44 18 98 40 121 50 42 20 315
121 394 146 25 8 54 19 65 24 31 13 312 103 485 154 148 44 188 56 318 92 31
9 68 20 82 24 41 14 549 138 740 180 154 35 195 43 445 94 72 14 148 30 170
36 42 10 340 67 530 101 61 11 133 24 160 29 28 5 77 14 110 19 33 6 96 18
140 27 44 8 109 19 145 25 36 5 90 13 120 19 146 25 599 98 685 110 39 5 102
15 140 21 39 6 98 15 133 20 34 5 90 13 125 19 34 5 94 14 132 19 67 9 153 21
295 42 36 5 99 13 140 19 41 5 111 14 155 20 86 11 661 83 810 100 50 6 124
15 165 20 171 21 546 62 725 79 264 27 339 33 460 40 196 12 1239 12 1485 1z"/>
</g>
</svg>
